0
SECTION
2
HEADER
9
$ACADVER
1
AC1015
9
$INSUNITS
70
4
0
ENDSEC
0
SECTION
2
ENTITIES
999
Base plate - 3mm material - Center hub with 4 arms
0
CIRCLE
8
CENTER_HUB
10
0.0
20
0.0
40
60.0
0
CIRCLE
8
CENTER_HUB
10
0.0
20
0.0
40
50.0
999
Main impeller mounting ring - external teeth clearance
0
CIRCLE
8
MOUNTING_HOLES
10
0.0
20
0.0
40
4.0
999
Center mounting hole for main gimbal bearing
0
CIRCLE
8
MOUNTING_HOLES
10
40.0
20
0.0
40
2.5
0
CIRCLE
8
MOUNTING_HOLES
10
-40.0
20
0.0
40
2.5
0
CIRCLE
8
MOUNTING_HOLES
10
0.0
20
40.0
40
2.5
0
CIRCLE
8
MOUNTING_HOLES
10
0.0
20
-40.0
40
2.5
999
4x servo mounting holes around main hub
0
LINE
8
ARM_FRONT
10
0.0
20
60.0
11
0.0
21
260.0
999
Front arm - 200mm length from hub edge
0
LINE
8
ARM_FRONT
10
-15.0
20
60.0
11
-15.0
21
260.0
0
LINE
8
ARM_FRONT
10
15.0
20
60.0
11
15.0
21
260.0
0
ARC
8
ARM_FRONT
10
0.0
20
260.0
40
15.0
50
180.0
51
360.0
999
Front arm end cap
0
LINE
8
ARM_REAR
10
0.0
20
-60.0
11
0.0
21
-260.0
999
Rear arm
0
LINE
8
ARM_REAR
10
-15.0
20
-60.0
11
-15.0
21
-260.0
0
LINE
8
ARM_REAR
10
15.0
20
-60.0
11
15.0
21
-260.0
0
ARC
8
ARM_REAR
10
0.0
20
-260.0
40
15.0
50
0.0
51
180.0
0
LINE
8
ARM_LEFT
10
-60.0
20
0.0
11
-260.0
21
0.0
999
Left arm
0
LINE
8
ARM_LEFT
10
-60.0
20
-15.0
11
-260.0
21
-15.0
0
LINE
8
ARM_LEFT
10
-60.0
20
15.0
11
-260.0
21
15.0
0
ARC
8
ARM_LEFT
10
-260.0
20
0.0
40
15.0
50
90.0
51
270.0
0
LINE
8
ARM_RIGHT
10
60.0
20
0.0
11
260.0
21
0.0
999
Right arm
0
LINE
8
ARM_RIGHT
10
60.0
20
-15.0
11
260.0
21
-15.0
0
LINE
8
ARM_RIGHT
10
60.0
20
15.0
11
260.0
21
15.0
0
ARC
8
ARM_RIGHT
10
260.0
20
0.0
40
15.0
50
270.0
51
450.0
999
Motor mounting circles at arm ends - 50mm impeller housings
0
CIRCLE
8
MOTOR_MOUNTS
10
0.0
20
260.0
40
30.0
0
CIRCLE
8
MOTOR_MOUNTS
10
0.0
20
-260.0
40
30.0
0
CIRCLE
8
MOTOR_MOUNTS
10
-260.0
20
0.0
40
30.0
0
CIRCLE
8
MOTOR_MOUNTS
10
260.0
20
0.0
40
30.0
999
Motor mounting holes - M3 bolt pattern
0
CIRCLE
8
MOUNTING_HOLES
10
0.0
20
280.0
40
1.5
0
CIRCLE
8
MOUNTING_HOLES
10
0.0
20
240.0
40
1.5
0
CIRCLE
8
MOUNTING_HOLES
10
20.0
20
260.0
40
1.5
0
CIRCLE
8
MOUNTING_HOLES
10
-20.0
20
260.0
40
1.5
0
CIRCLE
8
MOUNTING_HOLES
10
0.0
20
-280.0
40
1.5
0
CIRCLE
8
MOUNTING_HOLES
10
0.0
20
-240.0
40
1.5
0
CIRCLE
8
MOUNTING_HOLES
10
20.0
20
-260.0
40
1.5
0
CIRCLE
8
MOUNTING_HOLES
10
-20.0
20
-260.0
40
1.5
0
CIRCLE
8
MOUNTING_HOLES
10
-280.0
20
0.0
40
1.5
0
CIRCLE
8
MOUNTING_HOLES
10
-240.0
20
0.0
40
1.5
0
CIRCLE
8
MOUNTING_HOLES
10
-260.0
20
20.0
40
1.5
0
CIRCLE
8
MOUNTING_HOLES
10
-260.0
20
-20.0
40
1.5
0
CIRCLE
8
MOUNTING_HOLES
10
280.0
20
0.0
40
1.5
0
CIRCLE
8
MOUNTING_HOLES
10
240.0
20
0.0
40
1.5
0
CIRCLE
8
MOUNTING_HOLES
10
260.0
20
20.0
40
1.5
0
CIRCLE
8
MOUNTING_HOLES
10
260.0
20
-20.0
40
1.5
0
ENDSEC
0
EOF
