0
SECTION
2
HEADER
9
$ACADVER
1
AC1015
9
$INSUNITS
70
4
0
ENDSEC
0
SECTION
2
ENTITIES
999
===================================================================
999
GIMBAL IMPELLER DRONE - FULL ASSEMBLY BLUEPRINT
999
Scale: 1:1 (millimeters)
999
Date: 2026-02-12
999
AI-Optimized Design with Bladeless + Bladed Impeller Options
999
===================================================================
999
LAYER 1: FRAME BASE (520mm x 520mm)
0
CIRCLE
8
FRAME_CENTERLINE
10
0.0
20
0.0
40
260.0
999
Reference circle - 520mm wingspan
0
CIRCLE
8
FRAME_STRUCTURE
10
0.0
20
0.0
40
60.0
999
Central hub outer
0
CIRCLE
8
FRAME_STRUCTURE
10
0.0
20
0.0
40
50.0
999
Central hub inner - gimbal clearance
0
CIRCLE
8
FRAME_STRUCTURE
10
0.0
20
0.0
40
45.0
999
Main impeller (90mm) - centerline
999
ARM STRUCTURE - FRONT (0°)
0
LINE
8
ARM_STRUCTURE
10
0.0
20
60.0
11
0.0
21
260.0
0
LINE
8
ARM_STRUCTURE
10
-15.0
20
60.0
11
-15.0
21
260.0
0
LINE
8
ARM_STRUCTURE
10
15.0
20
60.0
11
15.0
21
260.0
0
ARC
8
ARM_STRUCTURE
10
0.0
20
260.0
40
15.0
50
180.0
51
360.0
999
ARM STRUCTURE - REAR (180°)
0
LINE
8
ARM_STRUCTURE
10
0.0
20
-60.0
11
0.0
21
-260.0
0
LINE
8
ARM_STRUCTURE
10
-15.0
20
-60.0
11
-15.0
21
-260.0
0
LINE
8
ARM_STRUCTURE
10
15.0
20
-60.0
11
15.0
21
-260.0
0
ARC
8
ARM_STRUCTURE
10
0.0
20
-260.0
40
15.0
50
0.0
51
180.0
999
ARM STRUCTURE - LEFT (270°)
0
LINE
8
ARM_STRUCTURE
10
-60.0
20
0.0
11
-260.0
21
0.0
0
LINE
8
ARM_STRUCTURE
10
-60.0
20
-15.0
11
-260.0
21
-15.0
0
LINE
8
ARM_STRUCTURE
10
-60.0
20
15.0
11
-260.0
21
15.0
0
ARC
8
ARM_STRUCTURE
10
-260.0
20
0.0
40
15.0
50
90.0
51
270.0
999
ARM STRUCTURE - RIGHT (90°)
0
LINE
8
ARM_STRUCTURE
10
60.0
20
0.0
11
260.0
21
0.0
0
LINE
8
ARM_STRUCTURE
10
60.0
20
-15.0
11
260.0
21
-15.0
0
LINE
8
ARM_STRUCTURE
10
60.0
20
15.0
11
260.0
21
15.0
0
ARC
8
ARM_STRUCTURE
10
260.0
20
0.0
40
15.0
50
270.0
51
450.0
999
LAYER 2: MAIN IMPELLER ASSEMBLY (CENTER)
0
CIRCLE
8
IMPELLER_MAIN
10
0.0
20
0.0
40
55.0
999
Main impeller housing (110mm outer ring)
0
CIRCLE
8
IMPELLER_MAIN
10
0.0
20
0.0
40
47.5
999
Gimbal ring inner diameter (95mm)
0
CIRCLE
8
IMPELLER_MAIN
10
0.0
20
0.0
40
45.0
999
Impeller blade diameter (90mm)
999
Gear teeth representation (60 teeth)
0
CIRCLE
8
GEAR_TEETH
10
52.0
20
0.0
40
2.0
0
CIRCLE
8
GEAR_TEETH
10
-52.0
20
0.0
40
2.0
0
CIRCLE
8
GEAR_TEETH
10
0.0
20
52.0
40
2.0
0
CIRCLE
8
GEAR_TEETH
10
0.0
20
-52.0
40
2.0
999
Gimbal pivot points (4x at ±30° tilt)
0
CIRCLE
8
GIMBAL_PIVOTS
10
40.0
20
0.0
40
4.0
0
CIRCLE
8
GIMBAL_PIVOTS
10
-40.0
20
0.0
40
4.0
0
CIRCLE
8
GIMBAL_PIVOTS
10
0.0
20
40.0
40
4.0
0
CIRCLE
8
GIMBAL_PIVOTS
10
0.0
20
-40.0
40
4.0
999
LAYER 3: PERIPHERAL IMPELLERS (50mm, 4x positions)
0
CIRCLE
8
PERIPHERAL_MOTORS
10
0.0
20
260.0
40
29.0
999
Front impeller housing (58mm outer)
0
CIRCLE
8
PERIPHERAL_MOTORS
10
0.0
20
260.0
40
25.0
999
Front impeller duct (50mm)
0
CIRCLE
8
PERIPHERAL_MOTORS
10
0.0
20
-260.0
40
29.0
999
Rear impeller housing
0
CIRCLE
8
PERIPHERAL_MOTORS
10
0.0
20
-260.0
40
25.0
0
CIRCLE
8
PERIPHERAL_MOTORS
10
-260.0
20
0.0
40
29.0
999
Left impeller housing
0
CIRCLE
8
PERIPHERAL_MOTORS
10
-260.0
20
0.0
40
25.0
0
CIRCLE
8
PERIPHERAL_MOTORS
10
260.0
20
0.0
40
29.0
999
Right impeller housing
0
CIRCLE
8
PERIPHERAL_MOTORS
10
260.0
20
0.0
40
25.0
999
LAYER 4: SERVO MOUNTING POSITIONS (3x for gimbal)
0
CIRCLE
8
SERVO_MOUNTS
10
30.0
20
-30.0
40
8.0
999
Servo 1 - Pitch control (rear)
0
CIRCLE
8
SERVO_MOUNTS
10
-25.0
20
25.0
40
8.0
999
Servo 2 - Roll left
0
CIRCLE
8
SERVO_MOUNTS
10
25.0
20
25.0
40
8.0
999
Servo 3 - Roll right
999
Servo linkage arms (to gimbal ring)
0
LINE
8
SERVO_LINKAGE
10
30.0
20
-30.0
11
0.0
21
-40.0
0
LINE
8
SERVO_LINKAGE
10
-25.0
20
25.0
11
-40.0
21
0.0
0
LINE
8
SERVO_LINKAGE
10
25.0
20
25.0
11
40.0
21
0.0
999
LAYER 5: ELECTRONICS PLACEMENT
0
RECTANGLE
8
ELECTRONICS
10
-21.6
20
-9.0
11
21.6
21
9.0
999
Arduino Nano housing (43.2mm x 18mm)
0
RECTANGLE
8
ELECTRONICS
10
-10.5
20
-8.0
11
10.5
21
8.0
999
MPU6050 IMU (21mm x 16mm) - centered
0
CIRCLE
8
ELECTRONICS
10
-15.0
20
15.0
40
5.0
999
NRF24 radio module
0
CIRCLE
8
ELECTRONICS
10
15.0
20
15.0
40
5.0
999
Buck converter (5V regulator)
0
RECTANGLE
8
ELECTRONICS
10
-20.0
20
-20.0
11
20.0
21
-40.0
999
Power distribution board (40mm x 40mm)
999
LAYER 6: BATTERY POSITIONS (4x in arms)
0
RECTANGLE
8
BATTERIES
10
-10.0
20
140.0
11
10.0
21
200.0
999
Front arm battery (2S 7.4V, ~60mm x 20mm)
0
RECTANGLE
8
BATTERIES
10
-10.0
20
-200.0
11
10.0
21
-140.0
999
Rear arm battery
0
RECTANGLE
8
BATTERIES
10
-200.0
20
-10.0
11
-140.0
21
10.0
999
Left arm battery
0
RECTANGLE
8
BATTERIES
10
140.0
20
-10.0
11
200.0
21
10.0
999
Right arm battery
999
LAYER 7: WIRING ROUTES (simplified)
0
LINE
8
WIRING
10
0.0
20
0.0
11
0.0
21
260.0
999
Front arm power/signal
0
LINE
8
WIRING
10
0.0
20
0.0
11
0.0
21
-260.0
999
Rear arm power/signal
0
LINE
8
WIRING
10
0.0
20
0.0
11
-260.0
21
0.0
999
Left arm power/signal
0
LINE
8
WIRING
10
0.0
20
0.0
11
260.0
21
0.0
999
Right arm power/signal
999
LAYER 8: DIMENSIONS & ANNOTATIONS
0
LINE
8
DIMENSIONS
10
-280.0
20
0.0
11
280.0
21
0.0
999
Overall width reference
0
LINE
8
DIMENSIONS
10
0.0
20
-280.0
11
0.0
21
280.0
999
Overall height reference
0
TEXT
8
ANNOTATIONS
10
-250.0
20
270.0
40
8.0
1
GIMBAL IMPELLER DRONE
72
2
0
TEXT
8
ANNOTATIONS
10
-250.0
20
260.0
40
5.0
1
Total Wingspan: 520mm
72
2
0
TEXT
8
ANNOTATIONS
10
-250.0
20
250.0
40
5.0
1
Main Impeller: 90mm (AI-optimized)
72
2
0
TEXT
8
ANNOTATIONS
10
-250.0
20
240.0
40
5.0
1
Peripheral Impellers: 4x 50mm
72
2
0
TEXT
8
ANNOTATIONS
10
-250.0
20
230.0
40
5.0
1
Gimbal Range: ±30 degrees
72
2
0
TEXT
8
ANNOTATIONS
10
-250.0
20
220.0
40
5.0
1
Weight: ~450g (estimated)
72
2
0
TEXT
8
ANNOTATIONS
10
-250.0
20
210.0
40
5.0
1
Battery: 4x 2S 1000mAh LiPo
72
2
0
TEXT
8
ANNOTATIONS
10
-250.0
20
200.0
40
5.0
1
Flight Time: 8-12 minutes
72
2
0
TEXT
8
ANNOTATIONS
10
150.0
20
270.0
40
5.0
1
COMPONENT KEY:
72
2
0
TEXT
8
ANNOTATIONS
10
150.0
20
260.0
40
4.0
1
1. Main Gimbal Impeller
72
2
0
TEXT
8
ANNOTATIONS
10
150.0
20
252.0
40
4.0
1
2. 4x Peripheral Motors
72
2
0
TEXT
8
ANNOTATIONS
10
150.0
20
244.0
40
4.0
1
3. 3x Gimbal Servos
72
2
0
TEXT
8
ANNOTATIONS
10
150.0
20
236.0
40
4.0
1
4. Arduino Nano FC
72
2
0
TEXT
8
ANNOTATIONS
10
150.0
20
228.0
40
4.0
1
5. MPU6050 IMU
72
2
0
TEXT
8
ANNOTATIONS
10
150.0
20
220.0
40
4.0
1
6. 4x LiPo Batteries
72
2
0
TEXT
8
ANNOTATIONS
10
150.0
20
212.0
40
4.0
1
7. Power Distribution
72
2
0
TEXT
8
ANNOTATIONS
10
-250.0
20
-230.0
40
5.0
1
IMPELLER OPTIONS:
72
2
0
TEXT
8
ANNOTATIONS
10
-250.0
20
-240.0
40
4.0
1
A) Bladeless (Dyson-style)
72
2
0
TEXT
8
ANNOTATIONS
10
-250.0
20
-248.0
40
4.0
1
B) AI-Optimized Blades (NACA airfoil)
72
2
0
TEXT
8
ANNOTATIONS
10
-250.0
20
-256.0
40
4.0
1
C) Hybrid (Bladeless + Blades)
72
2
0
TEXT
8
ANNOTATIONS
10
150.0
20
-230.0
40
5.0
1
AI OPTIMIZATIONS:
72
2
0
TEXT
8
ANNOTATIONS
10
150.0
20
-240.0
40
4.0
1
- Venturi effect amplification
72
2
0
TEXT
8
ANNOTATIONS
10
150.0
20
-248.0
40
4.0
1
- Coanda surface attachment
72
2
0
TEXT
8
ANNOTATIONS
10
150.0
20
-256.0
40
4.0
1
- NACA 2412 airfoil blades
72
2
0
TEXT
8
ANNOTATIONS
10
150.0
20
-264.0
40
4.0
1
- CFD-optimized flow angles
72
2
999
DETAIL VIEW: MAIN IMPELLER (SCALE 2:1)
0
CIRCLE
8
DETAIL_VIEW
10
-150.0
20
-120.0
40
80.0
999
Gimbal ring detail
0
CIRCLE
8
DETAIL_VIEW
10
-150.0
20
-120.0
40
70.0
999
Bladeless duct
0
CIRCLE
8
DETAIL_VIEW
10
-150.0
20
-120.0
40
50.0
999
Impeller blades
999
Gear teeth detail (every 6 degrees)
0
CIRCLE
8
DETAIL_VIEW
10
-70.0
20
-120.0
40
3.0
0
CIRCLE
8
DETAIL_VIEW
10
-75.0
20
-115.0
40
3.0
0
CIRCLE
8
DETAIL_VIEW
10
-78.0
20
-108.0
40
3.0
0
CIRCLE
8
DETAIL_VIEW
10
-80.0
20
-100.0
40
3.0
0
TEXT
8
DETAIL_VIEW
10
-180.0
20
-80.0
40
6.0
1
MAIN IMPELLER DETAIL
72
2
0
TEXT
8
DETAIL_VIEW
10
-200.0
20
-200.0
40
4.0
1
External gear: 60 teeth
72
2
0
TEXT
8
DETAIL_VIEW
10
-200.0
20
-207.0
40
4.0
1
Tilt range: ±30 deg
72
2
0
TEXT
8
DETAIL_VIEW
10
-200.0
20
-214.0
40
4.0
1
Duct gap: 0.8mm (critical)
72
2
999
CROSS-SECTION VIEW (A-A)
0
LINE
8
SECTION_CUT
10
-260.0
20
100.0
11
260.0
21
100.0
999
Section line marker
0
TEXT
8
SECTION_CUT
10
-270.0
20
100.0
40
6.0
1
A
72
2
0
TEXT
8
SECTION_CUT
10
265.0
20
100.0
40
6.0
1
A
72
2
999
BILL OF MATERIALS REFERENCE
0
TEXT
8
BOM
10
-250.0
20
-280.0
40
4.0
1
BOM: See DRONE_BOM.txt or ARDUINO_ELECTRONICS_BOM.txt
72
2
0
TEXT
8
BOM
10
-250.0
20
-287.0
40
4.0
1
Full Build: $260-460 | Arduino Budget: $60-90
72
2
0
ENDSEC
0
EOF
